<svg width="34" height="33" viewBox="0 0 34 33" fill="none" xmlns="http://www.w3.org/2000/svg">
<path d="M1.95166 16.4161C1.95166 7.74635 9.00645 0.693054 17.6777 0.693054C26.3499 0.693054 33.4052 7.74635 33.4052 16.4161C33.4052 25.0855 26.3499 32.1388 17.6777 32.1388C9.00636 32.1389 1.95166 25.0856 1.95166 16.4161ZM2.55567 16.4161C2.55567 24.7527 9.33944 31.5349 17.6777 31.5349C26.0169 31.5349 32.8012 24.7526 32.8012 16.4161C32.8012 8.07928 26.0169 1.29694 17.6777 1.29694C9.33935 1.29694 2.55567 8.07928 2.55567 16.4161Z" fill="#D72638"/>
<path d="M8.58496 19.0696C8.58496 12.9602 13.5566 7.98962 19.6679 7.98962C25.7789 7.98962 30.7505 12.9603 30.7505 19.0696C30.7505 25.1793 25.7789 30.1499 19.6679 30.1499C13.5566 30.1499 8.58496 25.1793 8.58496 19.0696ZM9.18897 19.0696C9.18897 24.8464 13.8899 29.5461 19.6679 29.5461C25.4459 29.5461 30.1465 24.8464 30.1465 19.0696C30.1465 13.2931 25.4459 8.59351 19.6679 8.59351C13.8899 8.59351 9.18897 13.2931 9.18897 19.0696Z" fill="#D72638"/>
<path d="M0.594727 7.46231C0.594727 11.5825 3.9356 14.9233 8.05797 14.9233C12.1803 14.9233 15.5216 11.5824 15.5216 7.46231C15.5216 3.34089 12.1803 0 8.05797 0C3.9356 0 0.594727 3.34089 0.594727 7.46231Z" fill="#D72638"/>
</svg>
