<svg width="232" height="232" viewBox="0 0 232 232" fill="none" xmlns="http://www.w3.org/2000/svg">
<rect width="232" height="232" rx="116" fill="#D9D9D9" fill-opacity="0.06"/>
<path d="M184.338 52.1789C184.306 51.046 183.841 49.9683 183.04 49.1669C182.238 48.3655 181.161 47.9011 180.028 47.8689L149.076 46.9814C148.188 46.9559 147.313 47.1977 146.563 47.6753C145.814 48.1529 145.226 48.8445 144.874 49.6605C144.522 50.4764 144.423 51.3792 144.591 52.2518C144.758 53.1245 145.183 53.9269 145.811 54.5551L151.39 60.1342L116.111 95.4245L95.8007 75.1152C93.2821 72.5967 89.9205 71.0993 86.3637 70.9115C82.8068 70.7236 79.3063 71.8587 76.5364 74.0979L49.2469 96.1612C48.475 96.7851 47.8525 97.5738 47.4248 98.4694C46.9972 99.3651 46.7752 100.345 46.7752 101.337V125.958C46.7753 126.796 47.0126 127.616 47.4595 128.325C47.9065 129.034 48.545 129.601 49.3011 129.962C50.0571 130.323 50.8999 130.462 51.732 130.364C52.564 130.266 53.3513 129.935 54.0028 129.408L84.5805 104.686L105.914 126.018C108.618 128.722 112.286 130.241 116.111 130.241C119.936 130.241 123.604 128.722 126.309 126.018L171.793 80.5334L177.649 86.3898C178.278 87.0181 179.08 87.4434 179.953 87.6105C180.825 87.7777 181.728 87.679 182.544 87.3272C183.36 86.9755 184.051 86.3869 184.529 85.6377C185.007 84.8884 185.248 84.0131 185.223 83.1249L184.338 52.1789Z" fill="#8BC34A"/>
<path d="M133.861 152.984C153.774 152.984 169.916 136.842 169.916 116.93C169.916 97.0174 153.774 80.8751 133.861 80.8751C113.949 80.8751 97.8065 97.0174 97.8065 116.93C97.8065 136.842 113.949 152.984 133.861 152.984Z" fill="#FFB300"/>
<path d="M133.861 143C148.259 143 159.931 131.328 159.931 116.93C159.931 102.532 148.259 90.8595 133.861 90.8595C119.463 90.8595 107.791 102.532 107.791 116.93C107.791 131.328 119.463 143 133.861 143Z" fill="#FFA000"/>
<path d="M180.804 138.08C171.322 145.744 161.325 152.75 150.884 159.047C140.223 165.437 119.589 169.453 107.963 167.711C105.56 167.364 103.108 167.682 100.874 168.632L72.4739 180.702C69.2399 182.075 65.5942 182.114 62.3316 180.811C59.069 179.507 56.454 176.967 55.0567 173.743L51.2349 164.922C50.5355 163.309 50.1629 161.572 50.1387 159.813C50.1144 158.054 50.4389 156.308 51.0934 154.676C51.7479 153.043 52.7194 151.556 53.9519 150.301C55.1844 149.047 56.6533 148.048 58.2739 147.364L93.258 132.6C93.258 132.6 110.797 123.747 128.07 130.359C140.173 134.985 144.367 131.612 149.625 130.403C153.02 129.627 155.971 133.088 156.248 136.505C158.678 134.785 168.374 127.929 171.968 125.511C173.637 124.406 175.67 123.996 177.636 124.367C179.603 124.738 181.347 125.862 182.498 127.498C183.649 129.135 184.117 131.156 183.802 133.132C183.486 135.108 182.413 136.883 180.81 138.08H180.804Z" fill="#FFCCBC"/>
<path d="M96.27 174.201L73.104 183.974C71.4876 184.656 69.7523 185.011 67.998 185.02C66.2436 185.029 64.5048 184.691 62.8815 184.026C61.2582 183.361 59.7823 182.381 58.5389 181.144C57.2954 179.906 56.3088 178.435 55.6358 176.815L49.3645 161.716C48.0125 158.463 48.0053 154.806 49.3445 151.548C50.6836 148.289 53.2599 145.694 56.5089 144.331C65.5136 140.559 76.3256 136.031 80.1064 134.458C80.5119 134.289 80.9468 134.203 81.3859 134.203C81.8251 134.203 82.2598 134.291 82.6651 134.46C83.0704 134.629 83.4382 134.877 83.7473 135.189C84.0564 135.5 84.3007 135.87 84.4662 136.277L98.0561 169.891C98.3828 170.7 98.3787 171.605 98.0446 172.412C97.7105 173.218 97.0732 173.86 96.27 174.201Z" fill="#039BE5"/>
<path d="M96.2699 174.201L89.9576 176.886L73.4723 137.215C76.0349 136.161 78.3646 135.185 80.1064 134.463C80.5119 134.295 80.9468 134.208 81.3859 134.209C81.8251 134.209 82.2598 134.296 82.6651 134.465C83.0703 134.635 83.4381 134.882 83.7473 135.194C84.0564 135.506 84.3007 135.876 84.4662 136.283L98.056 169.897C98.3811 170.705 98.3761 171.609 98.0421 172.414C97.7081 173.219 97.0719 173.86 96.2699 174.201Z" fill="#ECEFF1"/>
<path d="M159.56 136.151C159.496 135.559 159.382 134.974 159.217 134.402C157.915 135.322 156.856 136.066 156.248 136.501C156.667 140.626 150.725 144.704 147.928 145.941C144.489 147.509 137.431 147.53 133.506 147.041C133.289 147.014 133.069 147.031 132.858 147.089C132.648 147.147 132.45 147.246 132.278 147.38C132.106 147.514 131.961 147.681 131.853 147.872C131.745 148.062 131.676 148.271 131.649 148.488C131.622 148.705 131.638 148.925 131.696 149.136C131.754 149.347 131.853 149.544 131.988 149.716C132.122 149.889 132.289 150.033 132.479 150.141C132.669 150.249 132.879 150.318 133.096 150.345C137.796 150.909 145.181 150.841 149.285 148.977C152.378 147.612 160.242 142.644 159.56 136.151Z" fill="#FFAB91"/>
<path d="M132.863 108.577H135.868C136.489 108.578 137.084 108.825 137.523 109.265C137.962 109.704 138.209 110.299 138.21 110.92C138.21 111.362 138.385 111.785 138.697 112.097C139.009 112.409 139.433 112.584 139.874 112.584C140.315 112.584 140.739 112.409 141.051 112.097C141.363 111.785 141.538 111.362 141.538 110.92C141.537 109.417 140.939 107.975 139.876 106.912C138.813 105.849 137.371 105.251 135.868 105.249H135.525V102.906C135.525 102.465 135.35 102.042 135.038 101.729C134.726 101.417 134.303 101.242 133.861 101.242C133.42 101.242 132.997 101.417 132.685 101.729C132.372 102.042 132.197 102.465 132.197 102.906V105.281C130.489 105.447 128.911 106.263 127.79 107.562C126.668 108.861 126.091 110.542 126.176 112.255C126.262 113.969 127.005 115.584 128.25 116.764C129.495 117.944 131.147 118.6 132.863 118.594H134.86C135.736 118.61 136.571 118.969 137.185 119.595C137.799 120.22 138.143 121.061 138.143 121.938C138.143 122.815 137.799 123.656 137.185 124.281C136.571 124.907 135.736 125.266 134.86 125.282H131.858C131.237 125.281 130.641 125.034 130.202 124.595C129.763 124.156 129.516 123.56 129.516 122.939C129.516 122.498 129.34 122.075 129.028 121.763C128.716 121.45 128.293 121.275 127.852 121.275C127.41 121.275 126.987 121.45 126.675 121.763C126.363 122.075 126.188 122.498 126.188 122.939C126.189 124.443 126.787 125.884 127.85 126.947C128.913 128.01 130.354 128.609 131.858 128.61H132.197V130.953C132.197 131.395 132.372 131.818 132.685 132.13C132.997 132.442 133.42 132.617 133.861 132.617C134.303 132.617 134.726 132.442 135.038 132.13C135.35 131.818 135.525 131.395 135.525 130.953V128.578C137.233 128.413 138.811 127.596 139.933 126.297C141.054 124.999 141.632 123.318 141.546 121.604C141.46 119.891 140.718 118.276 139.473 117.095C138.227 115.915 136.575 115.26 134.86 115.266H132.863C131.986 115.25 131.151 114.89 130.537 114.265C129.923 113.64 129.579 112.798 129.579 111.921C129.579 111.045 129.923 110.203 130.537 109.578C131.151 108.953 131.986 108.593 132.863 108.577Z" fill="#FFB300"/>
</svg>
