<svg width="130" height="131" viewBox="0 0 130 131" fill="none" xmlns="http://www.w3.org/2000/svg">
<rect y="0.5" width="130" height="130" rx="65" fill="#D9D9D9" fill-opacity="0.06"/>
<path fill-rule="evenodd" clip-rule="evenodd" d="M57.5055 33.6249H65.404C71.3712 33.6249 76.2541 38.5079 76.2541 44.4749V49.1356C76.2541 50.2349 75.3581 51.1272 74.2625 51.1272H70.6107C69.5114 51.1272 68.6192 50.2349 68.6192 49.1356V46.2593C68.6192 43.511 66.3678 41.2597 63.6196 41.2597H59.29C56.5417 41.2597 54.2904 43.511 54.2904 46.2593V61.6045H46.6555V44.4749C46.6555 38.5077 51.5384 33.6249 57.5055 33.6249Z" fill="#A79BA7"/>
<path fill-rule="evenodd" clip-rule="evenodd" d="M57.5055 33.6249H65.404C67.8437 33.6249 70.1024 34.4418 71.9209 35.816C73.3928 37.6684 74.2739 40.0063 74.2739 42.5399V47.2044C74.2739 48.3 73.3778 49.1961 72.2823 49.1961H68.6192V46.2596C68.6192 44.3621 67.5462 42.7057 65.98 41.8586C65.1178 40.3489 63.4915 39.3286 61.6392 39.3286H57.3135C54.5615 39.3286 52.3139 41.5762 52.3139 44.3282V59.6697H46.6555V44.4751C46.6555 38.508 51.5384 33.6251 57.5055 33.6251V33.6249Z" fill="#CCC4CC"/>
<path fill-rule="evenodd" clip-rule="evenodd" d="M42.8078 55.2686H80.1016C82.5074 55.2686 84.48 57.2375 84.48 59.6431V85.9061C84.48 88.3118 82.5072 90.2807 80.1016 90.2807H42.8078C40.4022 90.2807 38.4294 88.3118 38.4294 85.9061V59.6431C38.4294 57.2375 40.4022 55.2686 42.8078 55.2686Z" fill="#FECA5D"/>
<path fill-rule="evenodd" clip-rule="evenodd" d="M42.8078 55.2686H80.1016C80.4442 55.2686 80.7755 55.3061 81.0956 55.3816C81.1907 55.7403 81.2388 56.1098 81.2386 56.4809V82.7439C81.2386 85.1534 79.2696 87.1223 76.8602 87.1223H39.5664C39.2238 87.1223 38.8925 87.0809 38.5726 87.0056C38.4769 86.647 38.4288 86.2774 38.4295 85.9063V59.6433C38.4295 57.2376 40.4023 55.2687 42.808 55.2687L42.8078 55.2686Z" fill="#FFE177"/>
<path fill-rule="evenodd" clip-rule="evenodd" d="M61.4547 62.9148C64.8317 62.9148 67.5687 65.7421 67.5687 69.2357C67.5687 71.4232 66.4957 73.347 64.8619 74.4838V79.2274C64.8619 81.1023 63.3296 82.6345 61.4547 82.6345C59.5798 82.6345 58.0477 81.1023 58.0477 79.2274V74.4838C56.4138 73.3468 55.3408 71.4232 55.3408 69.2357C55.3408 65.7421 58.0778 62.9148 61.4548 62.9148H61.4547Z" fill="#F6B446"/>
<path fill-rule="evenodd" clip-rule="evenodd" d="M61.4547 62.9148C62.1212 62.9148 62.7611 63.024 63.3635 63.2273C64.0713 64.2589 64.4854 65.52 64.4854 66.8828C64.4854 69.0664 63.4124 70.994 61.7822 72.1309V76.8745C61.7822 78.8095 60.1521 80.3682 58.2132 80.2778C58.1024 79.9387 58.0465 79.5841 58.0475 79.2274V74.4838C56.4137 73.3468 55.3407 71.4232 55.3407 69.2357C55.3407 65.7421 58.0777 62.9148 61.4547 62.9148Z" fill="#FECA5D"/>
<path fill-rule="evenodd" clip-rule="evenodd" d="M77.839 75.9334C83.6555 74.3749 89.6378 77.827 91.1963 83.6437C92.7549 89.4602 89.3027 95.4424 83.4862 97.0011C77.6658 98.5597 71.6874 95.1074 70.1288 89.2909C68.5701 83.4705 72.0225 77.4921 77.839 75.9335V75.9334Z" fill="#45DEA6"/>
<path fill-rule="evenodd" clip-rule="evenodd" d="M77.839 75.9333C81.6226 74.9206 85.474 76.0236 88.132 78.5197C88.7055 79.4363 89.1382 80.4338 89.4157 81.4788C90.9743 87.2953 87.5221 93.2776 81.7054 94.8361C77.9219 95.8488 74.0706 94.7421 71.4126 92.246C70.8516 91.3538 70.4149 90.3598 70.1288 89.2907C68.5701 83.4703 72.0225 77.4919 77.839 75.9333Z" fill="#66F2BF"/>
<path d="M75.2676 86.8888C75.1808 86.8028 75.1119 86.7005 75.0649 86.5877C75.0179 86.4749 74.9937 86.354 74.9937 86.2318C74.9937 86.1096 75.0179 85.9887 75.0649 85.8759C75.1119 85.7632 75.1808 85.6608 75.2676 85.5749C75.629 85.2096 76.2163 85.2096 76.5815 85.5749L79.4314 88.4247L85.3195 82.5366C85.6809 82.1751 86.2719 82.1751 86.6334 82.5366C86.9948 82.898 86.9948 83.489 86.6334 83.8506L80.0866 90.3975C79.7252 90.7589 79.1379 90.7589 78.7727 90.3975L75.2676 86.8888Z" fill="white"/>
</svg>
